# xmcd CD database file
#
# Track frame offsets:
#	150
#	24565
#	45980
#	69868
#	93080
#	121470
#	141420
#	166825
#	200355
#	245010
#
# Disc length: 3625 seconds
#
# Revision: 0
# Processed by: cddbd v1.5.2PL0 Copyright (c) Steve Scherf et al.
# Submitted via: CDex 1.70beta2
#
DISCID=7f0e270a
DTITLE=MILES DAVIS - The Legendary Prestige Quintet Sessions Disc 3
DYEAR=1956
DGENRE=Jazz
TTITLE0='ROUND MIDNIGHT
TTITLE1=HALF NELSON
TTITLE2=YOU'RE MY EVERYTHING
TTITLE3=I COULD WRITE A BOOK
TTITLE4=OLEO
TTITLE5=AIREGIN
TTITLE6=TUNE UP
TTITLE7=WHEN LIGHTS ARE LOW
TTITLE8=BLUES BY FIVE
TTITLE9=MY FUNNY VALENTINE
EXTD=YEAR: 1956
EXTT0=
EXTT1=
EXTT2=
EXTT3=
EXTT4=
EXTT5=
EXTT6=
EXTT7=
EXTT8=
EXTT9=
PLAYORDER=
